<svg version="1.1" id="Layer_1" xmlns="http://www.w3.org/2000/svg" xmlns:xlink="http://www.w3.org/1999/xlink" x="0px" y="0px"
	 width="100%" viewBox="0 0 524 604" enable-background="new 0 0 524 604" xml:space="preserve">
<path fill="#00A651" opacity="1.000000" stroke="none" 
	d="
M1.000000,547.000000 
	C1.000000,390.309265 1.000000,233.618515 1.348031,76.342529 
	C3.508621,68.140404 10.302051,62.321171 18.983379,61.890457 
	C32.967880,61.196636 43.881100,52.412331 44.076607,36.939571 
	C44.218723,25.692266 54.166927,17.884680 63.676865,17.895731 
	C196.138046,18.049669 328.599701,18.098888 461.060486,17.823681 
	C472.402344,17.800117 482.254669,26.745853 482.058502,38.676311 
	C481.881714,49.428932 490.880157,59.459000 501.492920,61.012733 
	C505.166870,61.550613 508.875763,62.010319 512.468750,62.906483 
	C519.313538,64.613708 522.215942,70.296150 525.000000,76.000000 
	C525.000000,232.690750 525.000000,389.381500 524.654785,546.653931 
	C522.075195,555.027405 513.562256,561.166382 505.574463,561.036682 
	C492.970490,560.831970 482.830261,570.747925 482.313629,580.951050 
	C481.707123,592.929626 477.073364,600.794922 466.000000,605.000000 
	C330.975922,605.000000 195.951843,605.000000 60.340240,604.650146 
	C49.182701,601.491455 44.283360,594.409729 44.156792,584.187500 
	C44.020988,573.219788 34.331390,561.435669 22.681787,561.200500 
	C11.995869,560.984741 5.475820,555.930725 1.000000,547.000000 
M315.500000,37.999496 
	C232.069962,37.999496 148.639923,37.999496 65.154289,37.999496 
	C64.745743,50.433971 60.727005,60.800705 52.237003,69.253242 
	C43.683559,77.768944 33.448036,82.435402 21.263908,82.197144 
	C21.263908,235.003693 21.263908,387.408630 21.263908,539.790894 
	C46.196613,541.903748 62.772976,557.267456 65.405495,583.789124 
	C197.123337,583.789124 328.862152,583.789124 460.828033,583.789124 
	C461.347534,571.805115 465.555176,561.238098 473.792633,552.965149 
	C482.136993,544.584839 492.858551,540.374695 504.701599,539.885132 
	C504.701599,387.015045 504.701599,234.623856 504.701599,82.104477 
	C492.272278,82.448769 482.268005,77.610092 473.776459,69.264473 
	C465.124847,60.761513 461.280273,50.156193 460.745911,37.999496 
	C412.437500,37.999496 364.468750,37.999496 315.500000,37.999496 
z"/>
<path fill="#FFFFFF" opacity="0.000000" stroke="none" 
	d="
M525.000000,75.531342 
	C522.215942,70.296150 519.313538,64.613708 512.468750,62.906483 
	C508.875763,62.010319 505.166870,61.550613 501.492920,61.012733 
	C490.880157,59.459000 481.881714,49.428932 482.058502,38.676311 
	C482.254669,26.745853 472.402344,17.800117 461.060486,17.823681 
	C328.599701,18.098888 196.138046,18.049669 63.676865,17.895731 
	C54.166927,17.884680 44.218723,25.692266 44.076607,36.939571 
	C43.881100,52.412331 32.967880,61.196636 18.983379,61.890457 
	C10.302051,62.321171 3.508621,68.140404 1.348031,75.878647 
	C1.000000,51.016232 1.000000,26.032461 1.000003,1.052045 
	C175.666672,1.055398 350.333344,1.055398 525.000000,1.055398 
	C525.000000,25.761425 525.000000,50.412056 525.000000,75.531342 
z"/>
<path fill="#FFFFFF" opacity="0.000000" stroke="none" 
	d="
M1.000000,547.468628 
	C5.475820,555.930725 11.995869,560.984741 22.681787,561.200500 
	C34.331390,561.435669 44.020988,573.219788 44.156792,584.187500 
	C44.283360,594.409729 49.182701,601.491455 59.876358,604.650146 
	C40.407158,605.000000 20.814316,605.000000 1.000000,605.000000 
	C1.000000,585.979675 1.000000,566.958496 1.000000,547.468628 
z"/>
<path fill="#FFFFFF" opacity="0.000000" stroke="none" 
	d="
M466.468658,605.000000 
	C477.073364,600.794922 481.707123,592.929626 482.313629,580.951050 
	C482.830261,570.747925 492.970490,560.831970 505.574463,561.036682 
	C513.562256,561.166382 522.075195,555.027405 524.654785,547.117798 
	C525.000000,566.260742 525.000000,585.521545 525.000000,605.000000 
	C505.646301,605.000000 486.291809,605.000000 466.468658,605.000000 
z"/>
<path fill="#FFFFFF" opacity="0.000000" stroke="none" 
	d="
M316.000000,37.999496 
	C364.468750,37.999496 412.437500,37.999496 460.745911,37.999496 
	C461.280273,50.156193 465.124847,60.761513 473.776459,69.264473 
	C482.268005,77.610092 492.272278,82.448769 504.701599,82.104477 
	C504.701599,234.623856 504.701599,387.015045 504.701599,539.885132 
	C492.858551,540.374695 482.136993,544.584839 473.792633,552.965149 
	C465.555176,561.238098 461.347534,571.805115 460.828033,583.789124 
	C328.862152,583.789124 197.123337,583.789124 65.405495,583.789124 
	C62.772976,557.267456 46.196613,541.903748 21.263908,539.790894 
	C21.263908,387.408630 21.263908,235.003693 21.263908,82.197144 
	C33.448036,82.435402 43.683559,77.768944 52.237003,69.253242 
	C60.727005,60.800705 64.745743,50.433971 65.154289,37.999496 
	C148.639923,37.999496 232.069962,37.999496 316.000000,37.999496 
M365.444366,150.936600 
	C379.191895,145.206757 382.663177,134.905945 378.659058,123.524452 
	C375.705963,115.130417 368.054291,110.997177 360.085938,109.180519 
	C347.917419,106.406281 335.499634,104.100243 323.074677,103.253593 
	C310.896912,102.423782 298.513428,103.004837 286.339539,104.191154 
	C274.749817,105.320549 263.113525,107.297501 251.897430,110.363815 
	C246.460495,111.850197 240.622299,115.706039 237.282272,120.207832 
	C230.793228,128.954010 232.118408,143.186554 244.714020,149.005814 
	C250.270950,151.573166 254.890289,154.994385 256.376984,161.726089 
	C259.339172,175.138779 260.150787,188.721970 259.846893,202.340927 
	C259.691345,209.311844 255.065796,212.792099 247.793930,212.989075 
	C244.465103,213.079269 241.132996,213.084778 237.802582,213.072952 
	C224.127960,213.024384 210.445923,213.186310 196.783646,212.744278 
	C192.922806,212.619370 189.906204,209.764389 189.044586,205.624222 
	C188.220047,201.662155 187.171112,197.650085 187.113754,193.647186 
	C187.021805,187.228088 187.598877,180.793945 188.026276,174.375031 
	C188.265213,170.786331 188.380356,167.116577 189.252304,163.660187 
	C190.501923,158.706726 193.197678,154.709045 197.870224,151.913300 
	C202.441406,149.178207 207.652756,146.454254 210.633774,142.319885 
	C219.383682,130.184631 215.605484,116.627846 200.620956,110.283005 
	C188.439346,105.124992 175.422455,103.806633 162.443741,103.152390 
	C153.392258,102.696098 144.223068,103.208382 135.188812,104.111732 
	C123.041794,105.326317 110.853462,106.742981 98.908607,109.179565 
	C88.384674,111.326294 78.214096,115.080620 70.812004,123.700089 
	C65.026825,130.436722 63.190311,142.492691 73.445625,147.960159 
	C77.158081,149.939377 81.084869,151.690613 84.367371,154.247467 
	C87.019157,156.313049 90.327469,159.199371 90.788261,162.124313 
	C92.716736,174.365677 94.764511,186.755829 94.798096,199.096832 
	C94.900635,236.774902 96.389252,274.498138 92.983475,312.122253 
	C91.885048,324.256805 88.669556,334.880646 75.353683,339.502838 
	C71.785118,340.741608 67.978004,343.872040 66.186203,347.169586 
	C60.691837,357.281219 64.084160,366.950714 74.831718,373.299469 
	C88.576904,381.418945 104.141510,383.281616 119.507919,383.727783 
	C136.985764,384.235260 154.533661,382.844849 172.031693,381.914276 
	C180.197357,381.480011 180.074310,381.088684 180.202866,372.704407 
	C180.439407,357.275513 183.247726,342.328918 188.762329,327.883148 
	C189.564056,325.783020 190.025253,323.354950 189.886063,321.125977 
	C189.046753,307.685333 187.443634,294.269562 187.167526,280.823517 
	C186.935364,269.518494 190.270966,265.533569 201.056534,264.124573 
	C212.125565,262.678558 223.394058,262.822113 234.543793,261.892517 
	C237.812088,261.620026 241.439529,260.760651 244.110519,258.981476 
	C268.687653,242.610611 295.423737,232.538864 325.029663,230.874298 
	C333.886261,230.376343 342.794556,230.797363 351.836334,230.797363 
	C351.893066,230.080246 351.969635,229.435471 351.991577,228.788818 
	C352.664307,208.943726 353.137543,189.089020 354.098328,169.257950 
	C354.467438,161.639404 356.784241,154.566925 365.444366,150.936600 
M458.015533,323.386139 
	C457.337280,313.474518 457.569000,303.393524 455.763611,293.691650 
	C453.173431,279.772644 447.604889,266.973328 435.861450,257.877502 
	C430.630127,253.825623 424.920410,252.760925 418.506653,254.563904 
	C415.495819,255.410278 412.122894,256.507782 409.229828,255.924728 
	C402.483795,254.565186 395.652771,252.903061 389.349365,250.209412 
	C371.599274,242.624313 353.385925,236.646912 333.971985,237.246460 
	C286.523468,238.711731 246.921646,257.452911 216.571167,294.090851 
	C193.280380,322.206604 183.298141,354.895477 188.310135,391.282349 
	C193.799820,431.137238 213.881348,462.693207 246.542892,485.737488 
	C278.279663,508.129242 313.762939,516.792664 352.465210,511.143829 
	C369.414001,508.670013 385.034027,502.214355 400.635040,495.554443 
	C405.937408,493.290863 411.556610,491.317657 417.218781,490.478607 
	C422.654633,489.673035 427.045410,487.625793 430.853821,483.988159 
	C441.554901,473.766937 448.014465,461.068604 450.676727,446.743317 
	C451.621613,441.658936 450.756989,435.691833 448.970551,430.760986 
	C445.349335,420.765930 438.340851,419.041199 430.578705,426.114777 
	C415.015778,440.297302 396.913025,447.436798 375.937500,448.357971 
	C349.646515,449.512543 327.128418,441.702637 309.345795,421.852112 
	C294.068817,404.798615 286.374084,384.308075 283.083252,362.022247 
	C280.888733,347.161041 279.795898,332.284119 284.977600,317.636139 
	C292.224365,297.150543 307.449799,286.092682 329.087738,286.202942 
	C353.675385,286.328217 373.075287,296.385529 386.864594,316.892914 
	C392.891510,325.856140 398.332886,335.267609 404.949677,343.767548 
	C416.468170,358.564178 436.730713,358.609833 449.184235,344.525696 
	C454.333954,338.701691 456.743134,331.743866 458.015533,323.386139 
M344.461212,294.982208 
	C315.046112,288.077057 295.362549,299.416595 289.584503,327.717926 
	C285.846375,346.027557 289.462891,364.085266 294.940216,381.694977 
	C295.277496,382.779358 297.607910,383.912811 298.995819,383.894165 
	C308.913391,383.760956 318.838196,383.527222 328.739136,382.953156 
	C341.608459,382.206940 354.213196,380.130981 365.832672,374.034912 
	C372.125458,370.733459 376.359589,366.139648 377.061676,358.629761 
	C377.859497,350.095978 375.647980,343.623352 367.157166,339.961334 
	C355.812225,335.068298 350.963654,326.219604 351.929230,313.878662 
	C352.355713,308.427765 352.001129,302.915771 352.001129,297.185242 
	C349.676331,296.448242 347.489319,295.754944 344.461212,294.982208 
z"/>
<path fill="#00A651" opacity="1.000000" stroke="none" 
	d="
M365.067078,150.992554 
	C356.784241,154.566925 354.467438,161.639404 354.098328,169.257950 
	C353.137543,189.089020 352.664307,208.943726 351.991577,228.788818 
	C351.969635,229.435471 351.893066,230.080246 351.836334,230.797363 
	C342.794556,230.797363 333.886261,230.376343 325.029663,230.874298 
	C295.423737,232.538864 268.687653,242.610611 244.110519,258.981476 
	C241.439529,260.760651 237.812088,261.620026 234.543793,261.892517 
	C223.394058,262.822113 212.125565,262.678558 201.056534,264.124573 
	C190.270966,265.533569 186.935364,269.518494 187.167526,280.823517 
	C187.443634,294.269562 189.046753,307.685333 189.886063,321.125977 
	C190.025253,323.354950 189.564056,325.783020 188.762329,327.883148 
	C183.247726,342.328918 180.439407,357.275513 180.202866,372.704407 
	C180.074310,381.088684 180.197357,381.480011 172.031693,381.914276 
	C154.533661,382.844849 136.985764,384.235260 119.507919,383.727783 
	C104.141510,383.281616 88.576904,381.418945 74.831718,373.299469 
	C64.084160,366.950714 60.691837,357.281219 66.186203,347.169586 
	C67.978004,343.872040 71.785118,340.741608 75.353683,339.502838 
	C88.669556,334.880646 91.885048,324.256805 92.983475,312.122253 
	C96.389252,274.498138 94.900635,236.774902 94.798096,199.096832 
	C94.764511,186.755829 92.716736,174.365677 90.788261,162.124313 
	C90.327469,159.199371 87.019157,156.313049 84.367371,154.247467 
	C81.084869,151.690613 77.158081,149.939377 73.445625,147.960159 
	C63.190311,142.492691 65.026825,130.436722 70.812004,123.700089 
	C78.214096,115.080620 88.384674,111.326294 98.908607,109.179565 
	C110.853462,106.742981 123.041794,105.326317 135.188812,104.111732 
	C144.223068,103.208382 153.392258,102.696098 162.443741,103.152390 
	C175.422455,103.806633 188.439346,105.124992 200.620956,110.283005 
	C215.605484,116.627846 219.383682,130.184631 210.633774,142.319885 
	C207.652756,146.454254 202.441406,149.178207 197.870224,151.913300 
	C193.197678,154.709045 190.501923,158.706726 189.252304,163.660187 
	C188.380356,167.116577 188.265213,170.786331 188.026276,174.375031 
	C187.598877,180.793945 187.021805,187.228088 187.113754,193.647186 
	C187.171112,197.650085 188.220047,201.662155 189.044586,205.624222 
	C189.906204,209.764389 192.922806,212.619370 196.783646,212.744278 
	C210.445923,213.186310 224.127960,213.024384 237.802582,213.072952 
	C241.132996,213.084778 244.465103,213.079269 247.793930,212.989075 
	C255.065796,212.792099 259.691345,209.311844 259.846893,202.340927 
	C260.150787,188.721970 259.339172,175.138779 256.376984,161.726089 
	C254.890289,154.994385 250.270950,151.573166 244.714020,149.005814 
	C232.118408,143.186554 230.793228,128.954010 237.282272,120.207832 
	C240.622299,115.706039 246.460495,111.850197 251.897430,110.363815 
	C263.113525,107.297501 274.749817,105.320549 286.339539,104.191154 
	C298.513428,103.004837 310.896912,102.423782 323.074677,103.253593 
	C335.499634,104.100243 347.917419,106.406281 360.085938,109.180519 
	C368.054291,110.997177 375.705963,115.130417 378.659058,123.524452 
	C382.663177,134.905945 379.191895,145.206757 365.067078,150.992554 
z"/>
<path fill="#01A652" opacity="1.000000" stroke="none" 
	d="
M457.999878,323.818939 
	C456.743134,331.743866 454.333954,338.701691 449.184235,344.525696 
	C436.730713,358.609833 416.468170,358.564178 404.949677,343.767548 
	C398.332886,335.267609 392.891510,325.856140 386.864594,316.892914 
	C373.075287,296.385529 353.675385,286.328217 329.087738,286.202942 
	C307.449799,286.092682 292.224365,297.150543 284.977600,317.636139 
	C279.795898,332.284119 280.888733,347.161041 283.083252,362.022247 
	C286.374084,384.308075 294.068817,404.798615 309.345795,421.852112 
	C327.128418,441.702637 349.646515,449.512543 375.937500,448.357971 
	C396.913025,447.436798 415.015778,440.297302 430.578705,426.114777 
	C438.340851,419.041199 445.349335,420.765930 448.970551,430.760986 
	C450.756989,435.691833 451.621613,441.658936 450.676727,446.743317 
	C448.014465,461.068604 441.554901,473.766937 430.853821,483.988159 
	C427.045410,487.625793 422.654633,489.673035 417.218781,490.478607 
	C411.556610,491.317657 405.937408,493.290863 400.635040,495.554443 
	C385.034027,502.214355 369.414001,508.670013 352.465210,511.143829 
	C313.762939,516.792664 278.279663,508.129242 246.542892,485.737488 
	C213.881348,462.693207 193.799820,431.137238 188.310135,391.282349 
	C183.298141,354.895477 193.280380,322.206604 216.571167,294.090851 
	C246.921646,257.452911 286.523468,238.711731 333.971985,237.246460 
	C353.385925,236.646912 371.599274,242.624313 389.349365,250.209412 
	C395.652771,252.903061 402.483795,254.565186 409.229828,255.924728 
	C412.122894,256.507782 415.495819,255.410278 418.506653,254.563904 
	C424.920410,252.760925 430.630127,253.825623 435.861450,257.877502 
	C447.604889,266.973328 453.173431,279.772644 455.763611,293.691650 
	C457.569000,303.393524 457.337280,313.474518 457.999878,323.818939 
z"/>
<path fill="#01A652" opacity="1.000000" stroke="none" 
	d="
M344.881744,295.021912 
	C347.489319,295.754944 349.676331,296.448242 352.001129,297.185242 
	C352.001129,302.915771 352.355713,308.427765 351.929230,313.878662 
	C350.963654,326.219604 355.812225,335.068298 367.157166,339.961334 
	C375.647980,343.623352 377.859497,350.095978 377.061676,358.629761 
	C376.359589,366.139648 372.125458,370.733459 365.832672,374.034912 
	C354.213196,380.130981 341.608459,382.206940 328.739136,382.953156 
	C318.838196,383.527222 308.913391,383.760956 298.995819,383.894165 
	C297.607910,383.912811 295.277496,382.779358 294.940216,381.694977 
	C289.462891,364.085266 285.846375,346.027557 289.584503,327.717926 
	C295.362549,299.416595 315.046112,288.077057 344.881744,295.021912 
z"/>
</svg>